#!OML:ASF F:\VICON\USERDATA\INSTALL\rory3\rory3.ASF
:FULLY-SPECIFIED
:DEGREES
90
root 1.3996614426423113 17.91518216745045 48.93144986537151 -3.891450734195807 0.666953480648784 -7.750199656007634
lfemur -17.430755939712164 -1.0205715379121663 -12.063683053746251
ltibia 49.545023983634565
lfoot -9.331005184337121 2.0668637805383843
ltoes -17.73528975342022
rfemur -5.397372073436744 2.7563972422554146 31.85340404730554
rtibia 33.50282684700482
rfoot -2.558414619571489 -10.210165719744188
rtoes 2.8667768344391593
lowerback 10.67258108240407 0.5419085295083866 4.847398182657672
upperback -0.24673351285386558 1.917254974193938 2.14465877358934
thorax -5.993102644662217 0.9111373221437525 -0.6699095170003864
lowerneck -16.274201712679844 -3.8688697015561684 -1.4847270679745808
upperneck 21.684673757232815 -5.477995694518052 1.1778709687459346
head 9.715377344064136 -2.4761887103024787 -0.08658923365386276
lclavicle -2.5106273365910047e-15 -2.7480202753802597e-15
lhumerus -32.01284733841102 3.6445480142210642 82.19681273200975
lradius 26.349625724253098
lwrist 11.253698927659189
lhand -29.670160727622715 18.04447583632033
lfingers nan
lthumb -2.8806356778609614 48.427871099033126
rclavicle -2.5033820068695918e-15 -2.741663025462113e-15
rhumerus -29.044209000115703 -19.041595141715266 -75.31575887923518
rradius 32.583493292793385
rwrist 2.356703739893911
rhand -17.678293765342456 21.8663017149028
rfingers nan
rthumb 8.466496698472982 -7.678509143856105
91
root 1.3743320577221803 17.905662549533403 49.08932118009153 -3.9695676059273826 1.0146808932777585 -7.686141832759013
lfemur -18.01502443049393 -1.2749022409419706 -12.602318604341159
ltibia 44.57401494960385
lfoot -8.868064875739025 2.8079894344126584
ltoes -18.640982134629347
rfemur -5.716196200350785 2.6131465260033644 31.688869804683883
rtibia 36.278041748315395
rfoot -1.873397385176819 -10.840367809461465
rtoes 4.701271703012507
lowerback 10.695532964211367 0.6269610238966975 4.806146213733889
upperback -0.23930869440860214 2.1082655519440636 2.0945345462059377
thorax -5.923344140180886 1.0053640440303684 -0.8926387477981452
lowerneck -16.13257350130836 -3.9054699176664873 -1.577690849128781
upperneck 21.750618888031884 -5.553644210108593 1.3241355410796776
head 9.739584220642056 -2.496062527685797 -0.04003193799163893
lclavicle -2.5110071271542914e-15 -2.7488938614973358e-15
lhumerus -31.24268931050754 3.0716943237730905 82.08670451952045
lradius 26.758340775770865
lwrist 10.800874783213883
lhand -29.60975076160203 18.038292449389772
lfingers nan
lthumb -2.8196068571504207 48.437252471173096
rclavicle -2.50289924415938e-15 -2.7418693032398705e-15
rhumerus -29.227726522803508 -18.99968550985051 -75.79639767225446
rradius 32.505512355680196
rwrist 2.3939431683642836
rhand -17.71292867062869 21.806183328988855
rfingers nan
rthumb 8.451592924803379 -7.743973584461562
92
root 1.3541736010161665 17.898397739478362 49.1473400294467 -4.088476444275523 1.4332321716709682 -7.797908734849971
lfemur -18.213592032036484 -1.5755385416897973 -13.128685659230415
ltibia 39.72653249396653
lfoot -9.369675192119415 2.0238062347705523
ltoes -18.194954670584334
rfemur -5.876311754057209 2.353959473094378 31.60369164402396
rtibia 39.014243062794264
rfoot -1.7122460331965188 -11.393989385449746
rtoes 5.96830905886935
lowerback 10.739688984535317 0.7174692942022362 4.9051111234916736
upperback -0.244056956216535 2.2695946557516606 2.0729330151784735
thorax -5.90508860175103 1.0657192822876955 -1.1237205549666094
lowerneck -16.06329865030371 -3.9287162126951327 -1.6459059505752986
upperneck 21.769632040633027 -5.599640096387109 1.491370135414425
head 9.75045480329083 -2.5037671552562464 0.0191288668789934
lclavicle -2.5109234795117096e-15 -2.749505791873978e-15
lhumerus -30.410595279251492 2.4785622328941352 81.95468104191121
lradius 27.182758946021515
lwrist 10.19036992713795
lhand -29.544631057010037 18.03581962401956
lfingers nan
lthumb -2.7594468186976204 48.444227978059665
rclavicle -2.5026938009514173e-15 -2.7422283972784428e-15
rhumerus -29.42811244379764 -19.025866598292684 -76.29341498433732
rradius 32.35621856747792
rwrist 2.4148485789939613
rhand -17.703886794105745 21.820519033092733
rfingers nan
rthumb 8.447897871214728 -7.766436773791701
93
root 1.312806216497291 17.882727209865806 49.37746004250234 -4.206982033915503 1.7216194291998232 -7.317138766450697
lfemur -17.95776023648588 -1.8543563485356107 -14.152270936883209
ltibia 35.270015306944195
lfoot -9.540686916753232 1.5718649075868423
ltoes -17.87701673921159
rfemur -5.700971295564871 1.9729802976591746 31.015821020938958
rtibia 41.38285398548498
rfoot -1.8107748664248025 -11.73274596431209
rtoes 6.879172238266795
lowerback 10.767570918550923 0.7759588912822546 4.6152999613479615
upperback -0.2499850601618014 2.2663772954727106 1.9647926927794472
thorax -5.900301375985837 1.0793728960656463 -1.1320646997905082
lowerneck -16.065207084221864 -3.943475278752323 -1.6860485893894104
upperneck 21.735605769308386 -5.631580663546247 1.6724112237526085
head 9.745790200168367 -2.5045013897445902 0.0851251574882643
lclavicle -2.5110766654119258e-15 -2.7502146027085335e-15
lhumerus -29.57504273927626 1.8485408674807295 81.79060983102293
lradius 27.61059735912511
lwrist 9.440318889541436
lhand -29.46654080549554 18.115256379336213
lfingers nan
lthumb -2.7160182682746763 48.46609259478955
rclavicle -2.5032897975995043e-15 -2.743007212909807e-15
rhumerus -29.673417919774415 -19.117535548180086 -76.76885780281765
rradius 32.16990200691298
rwrist 2.4127877076806143
rhand -17.727674619690795 21.771034644211326
rfingers nan
rthumb 8.436258093499212 -7.8069809182947285
94
root 1.2887825435685518 17.86491436393338 49.73479907252094 -4.557343516922618 2.0633650278390583 -6.168121654743693
lfemur -17.17729729708848 -2.1541764915479966 -15.831868220548305
ltibia 31.646692725276395
lfoot -9.503097396990983 0.31741261915653496
ltoes -17.84079051596173
rfemur -5.9255281000980755 1.3137574074509106 29.670862632861347
rtibia 43.795766095884744
rfoot -2.1099134320582227 -11.549844854673475
rtoes 7.4864553813447365
lowerback 10.797098333264975 0.7405646626434504 3.794965521021701
upperback -0.21453982372127112 2.0596510639501493 1.8056280138583343
thorax -5.893220561748 0.9828714322632385 -0.9839167631740853
lowerneck -16.115560504619186 -3.9512261288283677 -1.7072382041831047
upperneck 21.6638966184842 -5.650118051038389 1.863156935846572
head 9.729556309880367 -2.499179565470914 0.15549769534990515
lclavicle -2.5107897816242843e-15 -2.7499532854765945e-15
lhumerus -28.765917775274847 1.2537929389666265 81.60314684572478
lradius 27.991817826036783
lwrist 8.62626757771523
lhand -29.41290548762756 18.22362230994384
lfingers nan
lthumb -2.6996006838463216 48.508878092802135
rclavicle -2.503289555270182e-15 -2.7429095143771386e-15
rhumerus -29.98608120636153 -19.286880488708245 -77.2271086582619
rradius 31.970315600353242
rwrist 2.386883696570442
rhand -17.716440098692654 21.78523064949582
rfingers nan
rthumb 8.436406774619885 -7.8197878000903325
